<svg xmlns="http://www.w3.org/2000/svg" width="104" height="104" viewBox="0 0 104 104">
    <g fill="none" fill-rule="evenodd">
        <ellipse cx="51.76" cy="51.76" fill="#9187C7" rx="51.76" ry="51.76"/>
        <g stroke="#FFF">
            <path d="M47.886 29.212l-15.614 6.69"/>
            <path stroke-width="1.5" d="M32 75.012V37.203c0-.799.206-1.506.51-1.747L47.14 24.09c.223-.183.469-.087.659.26.19.345.303.899.302 1.487v3.043l11.062-4.79c.401-.183.841-.087 1.183.26.342.345.543.899.541 1.487v1.766l9.388-2.885a1.87 1.87 0 0 1 1.668.26c.48.345.765.899.762 1.487v37.865c0 .8-.527 1.508-1.3 1.747L34.421 77.375a1.87 1.87 0 0 1-1.66-.264A1.824 1.824 0 0 1 32 75.628v-.616zM61.79 27.453l-29.518 8.449"/>
        </g>
    </g>
</svg>
