<svg xmlns="http://www.w3.org/2000/svg" width="100" height="100" viewBox="0 0 100 100">
    <g fill="none" fill-rule="evenodd">
        <circle cx="50" cy="50" r="50" fill="#9187C7"/>
        <g stroke="#FFF" stroke-width="2">
            <g transform="translate(33.75 33.75)">
                <ellipse cx="16.755" cy="9.68" rx="9.199" ry="9.68"/>
                <path d="M32.356 41.053c0-9.402-7.243-17.024-16.178-17.024S0 31.651 0 41.053c.128.992 32.779.499 32.356 0z"/>
            </g>
            <path d="M53.993 29.458s-.54-6.919 5.774-8.032c6.313-1.113 8.11 5.608 8.11 5.608s1.324 6.774-5.679 8.009M62.912 39.537s13.129-.345 13.129 15.274h-13"/>
            <g>
                <path d="M41.4 30.827s.414-5.187-4.239-6.007C32.51 24 31.17 29.04 31.17 29.04s-.992 5.081 4.168 5.991M34.828 38.403s-9.674-.26-9.674 11.455h9.579"/>
            </g>
        </g>
    </g>
</svg>
